<?xml version="1.0" encoding="UTF-8"?>
<!-- Created with Inkscape (http://www.inkscape.org/) -->
<svg width="178.98mm" height="40.306mm" version="1.1" viewBox="0 0 178.98 40.306" xmlns="http://www.w3.org/2000/svg">
 <g transform="translate(-19.369 -128.35)">
  <g transform="translate(-23.668)">
   <g transform="translate(0 38.5)">
    <g stroke="#000" stroke-width=".26458px">
     <path d="m43.301 115 25.981-15 25.981 15-25.981 15z" fill="#1c2d41"/>
     <path d="m43.301 110 25.981-15 25.981 15-25.981 15z" fill="#daf7f3"/>
     <path d="m43.301 105 25.981-15 25.981 15-25.981 15z" fill="#1c2d41"/>
    </g>
    <g fill="none" stroke="#fff" stroke-linecap="round" stroke-width=".5">
     <path d="m51.962 105 12.99-7.5" style="paint-order:stroke fill markers"/>
     <path d="m56.292 107.5 16.454-9.5" style="paint-order:stroke fill markers"/>
     <path d="m60.622 110 8.6603-5" style="paint-order:stroke fill markers"/>
     <path d="m64.952 112.5 12.124-7" style="paint-order:stroke fill markers"/>
     <path d="m69.282 115 14.722-8.5" style="paint-order:stroke fill markers"/>
    </g>
   </g>
   <g stroke-width=".46475" aria-label="Ledge Explorer">
    <path d="m100.89 151.66h5.3818v2.0635h-7.8821v-13.44h2.5003z"/>
    <path d="m111.69 144.04q0.90161 0 1.6545 0.28814 0.76218 0.28815 1.3106 0.84585 0.54841 0.5484 0.85514 1.3571 0.30673 0.79936 0.30673 1.8311 0 0.26026-0.0279 0.43687-0.0186 0.1673-0.0837 0.26955-0.0558 0.093-0.15801 0.13942-0.10224 0.0372-0.26026 0.0372h-5.893q0.10225 1.4686 0.79007 2.1564 0.68783 0.68783 1.8218 0.68783 0.5577 0 0.95738-0.13013 0.40898-0.13013 0.70642-0.28815 0.30673-0.15801 0.52981-0.28814 0.23238-0.13013 0.44616-0.13013 0.13942 0 0.24167 0.0558 0.10224 0.0558 0.1766 0.15802l0.66924 0.83654q-0.38109 0.44616-0.85514 0.75289-0.47404 0.29744-0.99456 0.48334-0.51122 0.1766-1.0503 0.25096-0.52981 0.0744-1.0317 0.0744-0.99456 0-1.8497-0.32532-0.85513-0.33462-1.4872-0.97597-0.63206-0.65065-0.99456-1.5987-0.3625-0.95738-0.3625-2.2122 0-0.97597 0.31602-1.8311 0.31603-0.86443 0.90161-1.4965 0.59488-0.64135 1.4407-1.0132 0.85514-0.3718 1.9241-0.3718zm0.0465 1.6452q-1.0038 0-1.5708 0.56699-0.56699 0.56699-0.725 1.608h4.3128q0-0.44616-0.12083-0.83655-0.12083-0.39968-0.3718-0.69712-0.25096-0.29744-0.63205-0.46475-0.3811-0.1766-0.89232-0.1766z"/>
    <path d="m124.63 153.73q-0.44615 0-0.58558-0.41827l-0.1859-0.9202q-0.29744 0.33461-0.62276 0.60417-0.32532 0.26955-0.70641 0.46475-0.3718 0.19519-0.80867 0.29743-0.42756 0.11154-0.92949 0.11154-0.78078 0-1.4314-0.32532-0.65065-0.32532-1.1247-0.93879-0.46475-0.62276-0.72501-1.5337-0.25096-0.9109-0.25096-2.0821 0-1.0596 0.28814-1.9705 0.28815-0.91091 0.82725-1.5802 0.53911-0.66923 1.292-1.041 0.75289-0.38109 1.6917-0.38109 0.79937 0 1.3664 0.26026 0.56699 0.25096 1.0132 0.67853v-5.0379h2.2958v13.812zm-3.058-1.6824q0.71571 0 1.2176-0.29744 0.50193-0.29743 0.94809-0.84584v-4.2757q-0.39039-0.47405-0.85514-0.66924-0.45545-0.19519-0.98526-0.19519-0.52052 0-0.94809 0.19519-0.41827 0.19519-0.71571 0.59488-0.28814 0.39039-0.44615 1.0038-0.15802 0.60417-0.15802 1.4314 0 0.83655 0.13013 1.4221 0.13942 0.57629 0.39039 0.94809 0.25096 0.3625 0.61346 0.52981 0.36251 0.15801 0.80867 0.15801z"/>
    <path d="m132.04 144.02q0.61347 0 1.1526 0.13013 0.53911 0.12084 0.98527 0.3625h2.742v0.85514q0 0.21378-0.11154 0.33462-0.11154 0.12083-0.3811 0.16731l-0.85513 0.15801q0.093 0.24167 0.13942 0.51122 0.0558 0.26956 0.0558 0.56699 0 0.70642-0.28814 1.2827-0.27885 0.56699-0.78078 0.96667-0.49263 0.39969-1.1804 0.62276-0.67854 0.21379-1.4779 0.21379-0.53911 0-1.0503-0.10225-0.44616 0.26956-0.44616 0.60418 0 0.28814 0.26026 0.42756 0.26955 0.13013 0.69712 0.1859 0.43686 0.0558 0.98527 0.0744 0.5484 9e-3 1.1247 0.0558 0.57628 0.0465 1.1247 0.16731 0.54841 0.11154 0.97597 0.3625 0.43687 0.25097 0.69713 0.68783 0.26955 0.42757 0.26955 1.1061 0 0.63206-0.31603 1.2269-0.30673 0.59488-0.90161 1.0596-0.58558 0.46474-1.4407 0.74359-0.85513 0.28815-1.9519 0.28815-1.0875 0-1.8869-0.21379-0.79937-0.20449-1.3292-0.5577-0.52052-0.34391-0.78077-0.79936-0.26026-0.45545-0.26026-0.94809 0-0.66923 0.40897-1.1247 0.40898-0.45546 1.134-0.72501-0.35321-0.19519-0.56699-0.52052-0.21379-0.32532-0.21379-0.84584 0-0.21378 0.0744-0.43686 0.0744-0.23237 0.22308-0.45545 0.15802-0.22308 0.39039-0.41828 0.23237-0.20449 0.5484-0.3625-0.72501-0.39039-1.1433-1.041-0.40898-0.65065-0.40898-1.5244 0-0.70641 0.27885-1.2734 0.28815-0.57629 0.79007-0.97597 0.51123-0.40898 1.199-0.62276 0.69712-0.21379 1.5151-0.21379zm2.5189 10.132q0-0.27885-0.16731-0.45546-0.16731-0.1766-0.45545-0.26955-0.28814-0.10224-0.67853-0.14872-0.3811-0.0465-0.81796-0.0651-0.42757-0.0279-0.89231-0.0465-0.45546-0.0279-0.88302-0.0837-0.39039 0.21378-0.63206 0.51122-0.23237 0.28814-0.23237 0.66924 0 0.25096 0.12083 0.46474 0.13013 0.22308 0.39968 0.3811 0.27885 0.15801 0.71571 0.24166 0.43687 0.093 1.0689 0.093 0.64135 0 1.1061-0.10224 0.46475-0.093 0.76219-0.26955 0.30673-0.16731 0.44616-0.40898 0.13942-0.23238 0.13942-0.51122zm-2.5189-5.4282q0.42757 0 0.74359-0.11154 0.31603-0.12084 0.52052-0.32533 0.21379-0.20449 0.31603-0.49263 0.11154-0.28814 0.11154-0.63206 0-0.70641-0.42757-1.1154-0.41827-0.41827-1.2641-0.41827t-1.2734 0.41827q-0.41827 0.40898-0.41827 1.1154 0 0.33462 0.10224 0.62277 0.11154 0.28814 0.31603 0.50192 0.21378 0.20449 0.52981 0.32533 0.32533 0.11154 0.7436 0.11154z"/>
    <path d="m142.54 144.04q0.90161 0 1.6545 0.28814 0.76218 0.28815 1.3106 0.84585 0.5484 0.5484 0.85513 1.3571 0.30674 0.79936 0.30674 1.8311 0 0.26026-0.0279 0.43687-0.0186 0.1673-0.0837 0.26955-0.0558 0.093-0.15802 0.13942-0.10224 0.0372-0.26026 0.0372h-5.893q0.10224 1.4686 0.79007 2.1564 0.68782 0.68783 1.8218 0.68783 0.55769 0 0.95738-0.13013 0.40897-0.13013 0.70641-0.28815 0.30674-0.15801 0.52981-0.28814 0.23238-0.13013 0.44616-0.13013 0.13943 0 0.24167 0.0558 0.10225 0.0558 0.1766 0.15802l0.66924 0.83654q-0.38109 0.44616-0.85513 0.75289-0.47405 0.29744-0.99456 0.48334-0.51123 0.1766-1.0503 0.25096-0.52982 0.0744-1.0317 0.0744-0.99456 0-1.8497-0.32532-0.85513-0.33462-1.4872-0.97597-0.63206-0.65065-0.99456-1.5987-0.3625-0.95738-0.3625-2.2122 0-0.97597 0.31603-1.8311 0.31602-0.86443 0.90161-1.4965 0.59487-0.64135 1.4407-1.0132 0.85514-0.3718 1.9241-0.3718zm0.0465 1.6452q-1.0038 0-1.5708 0.56699-0.567 0.56699-0.72501 1.608h4.3129q0-0.44616-0.12084-0.83655-0.12083-0.39968-0.3718-0.69712-0.25096-0.29744-0.63205-0.46475-0.38109-0.1766-0.89232-0.1766z"/>
    <path d="m161.84 140.29v1.9891h-5.9581v3.7273h4.6939v1.924h-4.6939v3.8016h5.9581v1.9984h-8.477v-13.44z"/>
    <path d="m165.9 148.81-3.1324-4.6196h2.2122q0.25096 0 0.37179 0.0744 0.12084 0.0651 0.21379 0.22308l1.9984 3.1882q0.0465-0.15802 0.11154-0.31603 0.0744-0.15802 0.17661-0.31603l1.608-2.5096q0.11154-0.1766 0.23238-0.26025 0.12083-0.0837 0.29743-0.0837h2.11l-3.1417 4.5174 3.2718 5.0193h-2.2122q-0.25096 0-0.40898-0.13013-0.14872-0.13013-0.25096-0.29744l-2.0263-3.3183q-0.0837 0.33462-0.23238 0.5577l-1.7846 2.7606q-0.10224 0.15802-0.25096 0.29744-0.14872 0.13013-0.3718 0.13013h-2.0542z"/>
    <path d="m173.45 156.84v-12.65h1.4035q0.22308 0 0.3811 0.10225 0.15801 0.10224 0.20448 0.31602l0.1859 0.88302q0.57629-0.65994 1.3199-1.0689 0.75289-0.40897 1.7567-0.40897 0.78078 0 1.4221 0.32532 0.65065 0.32532 1.1154 0.94808 0.47405 0.61347 0.72501 1.5244 0.26026 0.90161 0.26026 2.0728 0 1.0689-0.28815 1.9798-0.28814 0.91091-0.82725 1.5802-0.52981 0.66923-1.292 1.0503-0.75289 0.37179-1.6917 0.37179-0.80867 0-1.3757-0.24167-0.55769-0.25096-1.0038-0.68782v3.9039zm4.4616-11.015q-0.71571 0-1.2269 0.30674-0.50193 0.29743-0.93879 0.84584v4.2757q0.39039 0.48334 0.84584 0.67853 0.46475 0.1859 0.99456 0.1859 0.52052 0 0.93879-0.19519 0.42757-0.1952 0.71571-0.59488 0.29744-0.39968 0.45545-1.0038 0.15802-0.61347 0.15802-1.4407 0-0.83655-0.13943-1.4128-0.13013-0.58558-0.38109-0.94809-0.25096-0.3625-0.61347-0.52981-0.35321-0.16731-0.80866-0.16731z"/>
    <path d="m186.17 139.92v13.812h-2.2958v-13.812z"/>
    <path d="m192.61 144.04q1.0689 0 1.9334 0.34391 0.87373 0.34392 1.4872 0.97597 0.61346 0.63206 0.94808 1.543 0.33462 0.9109 0.33462 2.0356 0 1.134-0.33462 2.0449-0.33462 0.9109-0.94808 1.5523-0.61347 0.64135-1.4872 0.98526-0.86443 0.34391-1.9334 0.34391t-1.9426-0.34391q-0.87373-0.34391-1.4965-0.98526-0.61346-0.64136-0.95738-1.5523-0.33462-0.91091-0.33462-2.0449 0-1.1247 0.33462-2.0356 0.34392-0.91091 0.95738-1.543 0.62276-0.63205 1.4965-0.97597 0.87372-0.34391 1.9426-0.34391zm0 8.0587q1.1898 0 1.7568-0.79936 0.57629-0.79937 0.57629-2.3423t-0.57629-2.3516q-0.56699-0.80866-1.7568-0.80866-1.2083 0-1.7846 0.81795-0.57628 0.80866-0.57628 2.3423t0.57628 2.3423q0.57629 0.79936 1.7846 0.79936z"/>
    <path d="m198.87 153.73v-9.5366h1.3478q0.35321 0 0.49264 0.13013 0.13942 0.13013 0.1859 0.44616l0.13942 1.1526q0.51122-0.88302 1.199-1.3942 0.68782-0.51122 1.543-0.51122 0.70642 0 1.1712 0.32532l-0.29743 1.7196q-0.0279 0.1673-0.12084 0.24166-0.093 0.0651-0.25096 0.0651-0.13943 0-0.3811-0.0651-0.24166-0.0651-0.64135-0.0651-0.71571 0-1.2269 0.39968-0.51122 0.39039-0.86443 1.1526v5.9395z"/>
    <path d="m210.17 144.04q0.90161 0 1.6545 0.28814 0.76218 0.28815 1.3106 0.84585 0.5484 0.5484 0.85513 1.3571 0.30674 0.79936 0.30674 1.8311 0 0.26026-0.0279 0.43687-0.0186 0.1673-0.0837 0.26955-0.0558 0.093-0.15802 0.13942-0.10224 0.0372-0.26026 0.0372h-5.893q0.10225 1.4686 0.79008 2.1564 0.68782 0.68783 1.8218 0.68783 0.55769 0 0.95738-0.13013 0.40897-0.13013 0.70641-0.28815 0.30674-0.15801 0.52981-0.28814 0.23238-0.13013 0.44616-0.13013 0.13943 0 0.24167 0.0558t0.1766 0.15802l0.66924 0.83654q-0.38109 0.44616-0.85513 0.75289-0.47405 0.29744-0.99456 0.48334-0.51123 0.1766-1.0503 0.25096-0.52982 0.0744-1.0317 0.0744-0.99456 0-1.8497-0.32532-0.85513-0.33462-1.4872-0.97597-0.63206-0.65065-0.99456-1.5987-0.3625-0.95738-0.3625-2.2122 0-0.97597 0.31603-1.8311 0.31602-0.86443 0.90161-1.4965 0.59487-0.64135 1.4407-1.0132 0.85514-0.3718 1.9241-0.3718zm0.0465 1.6452q-1.0038 0-1.5708 0.56699-0.567 0.56699-0.72501 1.608h4.3129q0-0.44616-0.12084-0.83655-0.12083-0.39968-0.3718-0.69712-0.25096-0.29744-0.63205-0.46475-0.3811-0.1766-0.89232-0.1766z"/>
    <path d="m215.94 153.73v-9.5366h1.3478q0.35321 0 0.49263 0.13013 0.13943 0.13013 0.1859 0.44616l0.13943 1.1526q0.51122-0.88302 1.199-1.3942 0.68782-0.51122 1.543-0.51122 0.70641 0 1.1712 0.32532l-0.29744 1.7196q-0.0279 0.1673-0.12083 0.24166-0.093 0.0651-0.25096 0.0651-0.13943 0-0.3811-0.0651t-0.64135-0.0651q-0.71571 0-1.2269 0.39968-0.51122 0.39039-0.86443 1.1526v5.9395z"/>
   </g>
  </g>
 </g>
</svg>
